ffmpeg started on 2025-06-20 at 17:07:51
Report written to "D:\Convert\FFMetrics\reports\psnr_report-6.txt"
Log level: 32
Command line:
ffmpeg -hide_banner -nostdin -i "G:\\\xc0\xed\xe8\xec\xe5\\[\xd2\xee\xef]\\\xc2\xee\xeb\xf7\xe8\xf6\xe0 \xe8 \xef\xf0\xff\xed\xee\xf1\xf2\xe8\\\xd2\xee\xf0\xe3\xee\xe2\xe5\xf6 \xe2\xf1\xf2\xf0\xe5\xf7\xe0\xe5\xf2 \xec\xf3\xe4\xf0\xf3\xfe \xe2\xee\xeb\xf7\xe8\xf6\xf3\\DC_Ookami_to_Koushinryou_Merchant_Meets_the_Wise_Wolf_13_Telegram_HEVC.mkv" -i "G:\\\xc0\xed\xe8\xec\xe5\\[\xd2\xee\xef]\\\xc2\xee\xeb\xf7\xe8\xf6\xe0 \xe8 \xef\xf0\xff\xed\xee\xf1\xf2\xe8\\\xd2\xee\xf0\xe3\xee\xe2\xe5\xf6 \xe2\xf1\xf2\xf0\xe5\xf7\xe0\xe5\xf2 \xec\xf3\xe4\xf0\xf3\xfe \xe2\xee\xeb\xf7\xe8\xf6\xf3\\DC_Ookami_to_Koushinryou_Merchant_Meets_the_Wise_Wolf_13_Telegram.mp4" -lavfi "[0:v]settb=AVTB,setpts=PTS-STARTPTS,format=pix_fmts=yuv420p10,fps=24000/1001,scale=1920:1080:flags=bicubic[main];[1:v]settb=AVTB,setpts=PTS-STARTPTS,format=pix_fmts=yuv420p,fps=24000/1001,scale=1920:1080:flags=bicubic[ref];[main][ref]psnr=eof_action=endall:stats_file='D\\:/Convert/FFMetrics/logs/psnr_logfile-6.txt'" -f null -
Input #0, matroska,webm, from 'G:\Аниме\[Топ]\Волчица и пряности\Торговец встречает мудрую волчицу\DC_Ookami_to_Koushinryou_Merchant_Meets_the_Wise_Wolf_13_Telegram_HEVC.mkv':
  Metadata:
    COMPATIBLE_BRANDS: isomiso2avc1mp41
    MAJOR_BRAND     : isom
    MINOR_VERSION   : 512
    ENCODER         : Lavf61.7.100
  Duration: 00:23:57.65, start: -0.021000, bitrate: 842 kb/s
  Stream #0:0: Video: hevc (Main 10), yuv420p10le(tv, bt709, progressive), 1920x1080 [SAR 1:1 DAR 16:9], 23.98 fps, 23.98 tbr, 1k tbn (default)
      Metadata:
        HANDLER_NAME    : VideoHandler
        VENDOR_ID       : [0][0][0][0]
        ENCODER         : Lavc61.19.100 libx265
        BPS             : 646224
        DURATION        : 00:23:56.559708333
        NUMBER_OF_FRAMES: 34443
        NUMBER_OF_BYTES : 116042511
        _STATISTICS_WRITING_APP: mkvpropedit v66.0.0 ('Josie') 64-bit
        _STATISTICS_WRITING_DATE_UTC: 2025-06-20 11:17:15
        _STATISTICS_TAGS: BPS DURATION NUMBER_OF_FRAMES NUMBER_OF_BYTES
  Stream #0:1: Audio: aac (LC), 48000 Hz, stereo, fltp (default)
      Metadata:
        HANDLER_NAME    : SoundHandler
        VENDOR_ID       : [0][0][0][0]
        ENCODER         : Lavc61.19.100 aac
        BPS             : 192705
        DURATION        : 00:23:57.653000000
        NUMBER_OF_FRAMES: 67391
        NUMBER_OF_BYTES : 34630487
        _STATISTICS_WRITING_APP: mkvpropedit v66.0.0 ('Josie') 64-bit
        _STATISTICS_WRITING_DATE_UTC: 2025-06-20 11:17:15
        _STATISTICS_TAGS: BPS DURATION NUMBER_OF_FRAMES NUMBER_OF_BYTES
Input #1, mov,mp4,m4a,3gp,3g2,mj2, from 'G:\Аниме\[Топ]\Волчица и пряности\Торговец встречает мудрую волчицу\DC_Ookami_to_Koushinryou_Merchant_Meets_the_Wise_Wolf_13_Telegram.mp4':
  Metadata:
    major_brand     : isom
    minor_version   : 512
    compatible_brands: isomiso2avc1mp41
    encoder         : Lavf60.16.100
  Duration: 00:23:57.63, start: 0.000000, bitrate: 3447 kb/s
  Stream #1:0[0x1](und): Video: h264 (High) (avc1 / 0x31637661), yuv420p(tv, bt709, progressive), 1920x1080 [SAR 1:1 DAR 16:9], 3301 kb/s, 23.98 fps, 23.98 tbr, 24k tbn (default)
      Metadata:
        handler_name    : VideoHandler
        vendor_id       : [0][0][0][0]
        encoder         : Lavc60.31.102 h264_qsv
  Stream #1:1[0x2](und): Audio: aac (HE-AACv2) (mp4a / 0x6134706D), 48000 Hz, stereo, fltp, 144 kb/s (default)
      Metadata:
        handler_name    : SoundHandler
        vendor_id       : [0][0][0][0]
Stream mapping:
  Stream #0:0 (hevc) -> settb:default
  Stream #1:0 (h264) -> settb:default
  psnr:default -> Stream #0:0 (wrapped_avframe)
  Stream #0:1 -> #0:1 (aac (native) -> pcm_s16le (native))
Output #0, null, to 'pipe:':
  Metadata:
    COMPATIBLE_BRANDS: isomiso2avc1mp41
    MAJOR_BRAND     : isom
    MINOR_VERSION   : 512
    encoder         : Lavf61.7.100
  Stream #0:0: Video: wrapped_avframe, yuv420p10le(tv, bt709, progressive), 1920x1080 [SAR 1:1 DAR 16:9], q=2-31, 200 kb/s, 23.98 fps, 23.98 tbn
      Metadata:
        encoder         : Lavc61.19.100 wrapped_avframe
  Stream #0:1: Audio: pcm_s16le, 48000 Hz, stereo, s16, 1536 kb/s (default)
      Metadata:
        HANDLER_NAME    : SoundHandler
        VENDOR_ID       : [0][0][0][0]
        _STATISTICS_TAGS: BPS DURATION NUMBER_OF_FRAMES NUMBER_OF_BYTES
        BPS             : 192705
        DURATION        : 00:23:57.653000000
        NUMBER_OF_FRAMES: 67391
        NUMBER_OF_BYTES : 34630487
        _STATISTICS_WRITING_APP: mkvpropedit v66.0.0 ('Josie') 64-bit
        _STATISTICS_WRITING_DATE_UTC: 2025-06-20 11:17:15
        encoder         : Lavc61.19.100 pcm_s16le
frame=  180 fps=0.0 q=-0.0 size=N/A time=00:00:07.50 bitrate=N/A speed=14.4x    frame=  420 fps=406 q=-0.0 size=N/A time=00:00:17.51 bitrate=N/A speed=  17x    frame=  671 fps=435 q=-0.0 size=N/A time=00:00:27.98 bitrate=N/A speed=18.1x    frame=  915 fps=446 q=-0.0 size=N/A time=00:00:38.16 bitrate=N/A speed=18.6x    frame= 1164 fps=451 q=-0.0 size=N/A time=00:00:48.54 bitrate=N/A speed=18.8x    frame= 1375 fps=445 q=-0.0 size=N/A time=00:00:57.34 bitrate=N/A speed=18.6x    frame= 1569 fps=436 q=-0.0 size=N/A time=00:01:05.44 bitrate=N/A speed=18.2x    frame= 1761 fps=427 q=-0.0 size=N/A time=00:01:13.44 bitrate=N/A speed=17.8x    frame= 1966 fps=424 q=-0.0 size=N/A time=00:01:21.99 bitrate=N/A speed=17.7x    frame= 2177 fps=422 q=-0.0 size=N/A time=00:01:30.79 bitrate=N/A speed=17.6x    frame= 2408 fps=425 q=-0.0 size=N/A time=00:01:40.43 bitrate=N/A speed=17.7x    frame= 2638 fps=427 q=-0.0 size=N/A time=00:01:50.02 bitrate=N/A speed=17.8x    frame= 2862 fps=427 q=-0.0 size=N/A time=00:01:59.36 bitrate=N/A speed=17.8x    frame= 3127 fps=433 q=-0.0 size=N/A time=00:02:10.42 bitrate=N/A speed=18.1x    frame= 3364 fps=435 q=-0.0 size=N/A time=00:02:20.30 bitrate=N/A speed=18.2x    frame= 3624 fps=440 q=-0.0 size=N/A time=00:02:31.15 bitrate=N/A speed=18.3x    frame= 3890 fps=444 q=-0.0 size=N/A time=00:02:42.24 bitrate=N/A speed=18.5x    frame= 4149 fps=447 q=-0.0 size=N/A time=00:02:53.04 bitrate=N/A speed=18.7x    frame= 4425 fps=452 q=-0.0 size=N/A time=00:03:04.55 bitrate=N/A speed=18.9x    frame= 4666 fps=452 q=-0.0 size=N/A time=00:03:14.61 bitrate=N/A speed=18.9x    frame= 4893 fps=452 q=-0.0 size=N/A time=00:03:24.12 bitrate=N/A speed=18.9x    frame= 5168 fps=455 q=-0.0 size=N/A time=00:03:35.54 bitrate=N/A speed=  19x    frame= 5418 fps=457 q=-0.0 size=N/A time=00:03:45.97 bitrate=N/A speed=19.1x    frame= 5674 fps=459 q=-0.0 size=N/A time=00:03:56.65 bitrate=N/A speed=19.1x    frame= 5951 fps=462 q=-0.0 size=N/A time=00:04:08.20 bitrate=N/A speed=19.3x    frame= 6224 fps=464 q=-0.0 size=N/A time=00:04:19.59 bitrate=N/A speed=19.4x    frame= 6491 fps=466 q=-0.0 size=N/A time=00:04:30.72 bitrate=N/A speed=19.5x    frame= 6770 fps=469 q=-0.0 size=N/A time=00:04:42.36 bitrate=N/A speed=19.6x    frame= 7026 fps=470 q=-0.0 size=N/A time=00:04:53.04 bitrate=N/A speed=19.6x    frame= 7259 fps=469 q=-0.0 size=N/A time=00:05:02.76 bitrate=N/A speed=19.6x    frame= 7446 fps=466 q=-0.0 size=N/A time=00:05:10.56 bitrate=N/A speed=19.4x    frame= 7680 fps=465 q=-0.0 size=N/A time=00:05:20.32 bitrate=N/A speed=19.4x    frame= 7918 fps=465 q=-0.0 size=N/A time=00:05:30.24 bitrate=N/A speed=19.4x    frame= 8170 fps=466 q=-0.0 size=N/A time=00:05:40.75 bitrate=N/A speed=19.4x    frame= 8440 fps=468 q=-0.0 size=N/A time=00:05:52.01 bitrate=N/A speed=19.5x    frame= 8706 fps=469 q=-0.0 size=N/A time=00:06:03.11 bitrate=N/A speed=19.6x    frame= 8959 fps=469 q=-0.0 size=N/A time=00:06:13.66 bitrate=N/A speed=19.6x    frame= 9214 fps=470 q=-0.0 size=N/A time=00:06:24.30 bitrate=N/A speed=19.6x    frame= 9472 fps=471 q=-0.0 size=N/A time=00:06:35.06 bitrate=N/A speed=19.7x    frame= 9759 fps=473 q=-0.0 size=N/A time=00:06:47.03 bitrate=N/A speed=19.7x    frame=10043 fps=475 q=-0.0 size=N/A time=00:06:58.87 bitrate=N/A speed=19.8x    frame=10322 fps=476 q=-0.0 size=N/A time=00:07:10.51 bitrate=N/A speed=19.9x    frame=10578 fps=477 q=-0.0 size=N/A time=00:07:21.19 bitrate=N/A speed=19.9x    frame=10848 fps=478 q=-0.0 size=N/A time=00:07:32.45 bitrate=N/A speed=19.9x    frame=11142 fps=480 q=-0.0 size=N/A time=00:07:44.71 bitrate=N/A speed=  20x    frame=11422 fps=481 q=-0.0 size=N/A time=00:07:56.39 bitrate=N/A speed=20.1x    frame=11706 fps=483 q=-0.0 size=N/A time=00:08:08.23 bitrate=N/A speed=20.1x    frame=12005 fps=485 q=-0.0 size=N/A time=00:08:20.70 bitrate=N/A speed=20.2x    frame=12296 fps=486 q=-0.0 size=N/A time=00:08:32.84 bitrate=N/A speed=20.3x    frame=12580 fps=488 q=-0.0 size=N/A time=00:08:44.69 bitrate=N/A speed=20.3x    frame=12876 fps=489 q=-0.0 size=N/A time=00:08:57.03 bitrate=N/A speed=20.4x    frame=13135 fps=490 q=-0.0 size=N/A time=00:09:07.83 bitrate=N/A speed=20.4x    frame=13400 fps=490 q=-0.0 size=N/A time=00:09:18.89 bitrate=N/A speed=20.4x    frame=13691 fps=491 q=-0.0 size=N/A time=00:09:31.02 bitrate=N/A speed=20.5x    frame=13978 fps=493 q=-0.0 size=N/A time=00:09:42.99 bitrate=N/A speed=20.5x    frame=14246 fps=493 q=-0.0 size=N/A time=00:09:54.17 bitrate=N/A speed=20.6x    frame=14535 fps=494 q=-0.0 size=N/A time=00:10:06.23 bitrate=N/A speed=20.6x    frame=14808 fps=495 q=-0.0 size=N/A time=00:10:17.61 bitrate=N/A speed=20.6x    frame=15082 fps=496 q=-0.0 size=N/A time=00:10:29.04 bitrate=N/A speed=20.7x    frame=15370 fps=496 q=-0.0 size=N/A time=00:10:41.05 bitrate=N/A speed=20.7x    frame=15644 fps=497 q=-0.0 size=N/A time=00:10:52.48 bitrate=N/A speed=20.7x    frame=15893 fps=497 q=-0.0 size=N/A time=00:11:02.87 bitrate=N/A speed=20.7x    frame=16188 fps=498 q=-0.0 size=N/A time=00:11:15.17 bitrate=N/A speed=20.8x    frame=16461 fps=499 q=-0.0 size=N/A time=00:11:26.56 bitrate=N/A speed=20.8x    frame=16742 fps=499 q=-0.0 size=N/A time=00:11:38.28 bitrate=N/A speed=20.8x    frame=17003 fps=499 q=-0.0 size=N/A time=00:11:49.16 bitrate=N/A speed=20.8x    frame=17218 fps=498 q=-0.0 size=N/A time=00:11:58.13 bitrate=N/A speed=20.8x    frame=17434 fps=497 q=-0.0 size=N/A time=00:12:07.14 bitrate=N/A speed=20.7x    frame=17718 fps=498 q=-0.0 size=N/A time=00:12:18.98 bitrate=N/A speed=20.8x    frame=18006 fps=499 q=-0.0 size=N/A time=00:12:31.00 bitrate=N/A speed=20.8x    frame=18275 fps=499 q=-0.0 size=N/A time=00:12:42.21 bitrate=N/A speed=20.8x    frame=18551 fps=499 q=-0.0 size=N/A time=00:12:53.73 bitrate=N/A speed=20.8x    frame=18826 fps=500 q=-0.0 size=N/A time=00:13:05.20 bitrate=N/A speed=20.9x    frame=19074 fps=500 q=-0.0 size=N/A time=00:13:15.54 bitrate=N/A speed=20.8x    frame=19348 fps=500 q=-0.0 size=N/A time=00:13:26.97 bitrate=N/A speed=20.9x    frame=19593 fps=500 q=-0.0 size=N/A time=00:13:37.19 bitrate=N/A speed=20.8x    frame=19854 fps=500 q=-0.0 size=N/A time=00:13:48.07 bitrate=N/A speed=20.9x    frame=20132 fps=500 q=-0.0 size=N/A time=00:13:59.67 bitrate=N/A speed=20.9x    frame=20375 fps=500 q=-0.0 size=N/A time=00:14:09.80 bitrate=N/A speed=20.9x    frame=20597 fps=499 q=-0.0 size=N/A time=00:14:19.06 bitrate=N/A speed=20.8x    frame=20826 fps=498 q=-0.0 size=N/A time=00:14:28.61 bitrate=N/A speed=20.8x    frame=21063 fps=498 q=-0.0 size=N/A time=00:14:38.50 bitrate=N/A speed=20.8x    frame=21262 fps=497 q=-0.0 size=N/A time=00:14:46.80 bitrate=N/A speed=20.7x    frame=21464 fps=495 q=-0.0 size=N/A time=00:14:55.22 bitrate=N/A speed=20.7x    frame=21679 fps=495 q=-0.0 size=N/A time=00:15:04.19 bitrate=N/A speed=20.6x    frame=21930 fps=494 q=-0.0 size=N/A time=00:15:14.66 bitrate=N/A speed=20.6x    frame=22184 fps=494 q=-0.0 size=N/A time=00:15:25.25 bitrate=N/A speed=20.6x    frame=22457 fps=495 q=-0.0 size=N/A time=00:15:36.64 bitrate=N/A speed=20.6x    frame=22715 fps=495 q=-0.0 size=N/A time=00:15:47.40 bitrate=N/A speed=20.6x    frame=22995 fps=495 q=-0.0 size=N/A time=00:15:59.08 bitrate=N/A speed=20.7x    frame=23263 fps=496 q=-0.0 size=N/A time=00:16:10.26 bitrate=N/A speed=20.7x    frame=23510 fps=495 q=-0.0 size=N/A time=00:16:20.56 bitrate=N/A speed=20.7x    frame=23773 fps=496 q=-0.0 size=N/A time=00:16:31.53 bitrate=N/A speed=20.7x    frame=24021 fps=495 q=-0.0 size=N/A time=00:16:41.87 bitrate=N/A speed=20.7x    frame=24286 fps=496 q=-0.0 size=N/A time=00:16:52.92 bitrate=N/A speed=20.7x    frame=24550 fps=496 q=-0.0 size=N/A time=00:17:03.93 bitrate=N/A speed=20.7x    frame=24826 fps=496 q=-0.0 size=N/A time=00:17:15.45 bitrate=N/A speed=20.7x    frame=25084 fps=496 q=-0.0 size=N/A time=00:17:26.21 bitrate=N/A speed=20.7x    frame=25359 fps=497 q=-0.0 size=N/A time=00:17:37.68 bitrate=N/A speed=20.7x    frame=25643 fps=497 q=-0.0 size=N/A time=00:17:49.52 bitrate=N/A speed=20.7x    frame=25910 fps=497 q=-0.0 size=N/A time=00:18:00.66 bitrate=N/A speed=20.7x    frame=26190 fps=498 q=-0.0 size=N/A time=00:18:12.34 bitrate=N/A speed=20.8x    frame=26470 fps=498 q=-0.0 size=N/A time=00:18:24.01 bitrate=N/A speed=20.8x    frame=26742 fps=499 q=-0.0 size=N/A time=00:18:35.36 bitrate=N/A speed=20.8x    frame=27028 fps=499 q=-0.0 size=N/A time=00:18:47.29 bitrate=N/A speed=20.8x    frame=27287 fps=499 q=-0.0 size=N/A time=00:18:58.09 bitrate=N/A speed=20.8x    frame=27557 fps=499 q=-0.0 size=N/A time=00:19:09.35 bitrate=N/A speed=20.8x    frame=27823 fps=499 q=-0.0 size=N/A time=00:19:20.45 bitrate=N/A speed=20.8x    frame=28100 fps=500 q=-0.0 size=N/A time=00:19:32.00 bitrate=N/A speed=20.8x    frame=28364 fps=500 q=-0.0 size=N/A time=00:19:43.01 bitrate=N/A speed=20.8x    frame=28648 fps=500 q=-0.0 size=N/A time=00:19:54.86 bitrate=N/A speed=20.9x    frame=28907 fps=500 q=-0.0 size=N/A time=00:20:05.66 bitrate=N/A speed=20.9x    frame=29185 fps=501 q=-0.0 size=N/A time=00:20:17.25 bitrate=N/A speed=20.9x    frame=29436 fps=500 q=-0.0 size=N/A time=00:20:27.72 bitrate=N/A speed=20.9x    frame=29706 fps=501 q=-0.0 size=N/A time=00:20:39.02 bitrate=N/A speed=20.9x    frame=29986 fps=501 q=-0.0 size=N/A time=00:20:50.66 bitrate=N/A speed=20.9x    frame=30239 fps=501 q=-0.0 size=N/A time=00:21:01.21 bitrate=N/A speed=20.9x    frame=30478 fps=501 q=-0.0 size=N/A time=00:21:11.18 bitrate=N/A speed=20.9x    frame=30723 fps=500 q=-0.0 size=N/A time=00:21:21.40 bitrate=N/A speed=20.9x    frame=30983 fps=500 q=-0.0 size=N/A time=00:21:32.24 bitrate=N/A speed=20.9x    frame=31249 fps=501 q=-0.0 size=N/A time=00:21:43.34 bitrate=N/A speed=20.9x    frame=31422 fps=499 q=-0.0 size=N/A time=00:21:50.55 bitrate=N/A speed=20.8x    frame=31557 fps=497 q=-0.0 size=N/A time=00:21:56.18 bitrate=N/A speed=20.7x    frame=31749 fps=496 q=-0.0 size=N/A time=00:22:04.19 bitrate=N/A speed=20.7x    frame=31994 fps=496 q=-0.0 size=N/A time=00:22:14.41 bitrate=N/A speed=20.7x    frame=32266 fps=496 q=-0.0 size=N/A time=00:22:25.76 bitrate=N/A speed=20.7x    frame=32497 fps=496 q=-0.0 size=N/A time=00:22:35.39 bitrate=N/A speed=20.7x    frame=32708 fps=495 q=-0.0 size=N/A time=00:22:44.19 bitrate=N/A speed=20.7x    frame=32948 fps=495 q=-0.0 size=N/A time=00:22:54.20 bitrate=N/A speed=20.6x    frame=33182 fps=495 q=-0.0 size=N/A time=00:23:03.96 bitrate=N/A speed=20.6x    frame=33354 fps=493 q=-0.0 size=N/A time=00:23:11.13 bitrate=N/A speed=20.6x    frame=33606 fps=493 q=-0.0 size=N/A time=00:23:21.65 bitrate=N/A speed=20.6x    frame=33867 fps=493 q=-0.0 size=N/A time=00:23:32.53 bitrate=N/A speed=20.6x    frame=34126 fps=494 q=-0.0 size=N/A time=00:23:43.33 bitrate=N/A speed=20.6x    frame=34325 fps=493 q=-0.0 size=N/A time=00:23:51.63 bitrate=N/A speed=20.6x    [Parsed_psnr_10 @ 000001d8807f36c0] PSNR y:49.664333 u:51.388532 v:51.759494 average:50.211610 min:40.306325 max:inf
[out#0/null @ 000001d8ff535480] video:14800KiB audio:269564KiB subtitle:0KiB other streams:0KiB global headers:0KiB muxing overhead: unknown
frame=34443 fps=493 q=-0.0 Lsize=N/A time=00:23:56.56 bitrate=N/A speed=20.6x    
